<?xml version="1.0" encoding="utf-8"?>
<!-- Generator: Adobe Illustrator 27.5.0, SVG Export Plug-In . SVG Version: 6.00 Build 0)  -->
<svg version="1.1" xmlns="http://www.w3.org/2000/svg" xmlns:xlink="http://www.w3.org/1999/xlink" x="0px" y="0px"
	 viewBox="0 0 500 500" style="enable-background:new 0 0 500 500;" xml:space="preserve">
<g id="Background_Complete">
	<g>
		<g>
			<g>
				<g>
					<g>
						<g>
							<path style="fill:#E0E0E0;" d="M85.487,350.489c-0.007-0.007-0.014-0.118-0.021-0.328c-0.006-0.242-0.013-0.546-0.022-0.926
								c-0.012-0.849-0.029-2.033-0.051-3.551c-0.028-3.115-0.067-7.592-0.117-13.238l0.211,0.211
								c-15.572,0.031-40.337,0.081-68.196,0.136c0.154-0.155-0.351,0.347,0.343-0.347v0.004v0.009v0.018v0.036v0.073v0.145l0,0.29
								v0.58v1.157c0,0.77,0,1.537,0,2.302c0,1.529-0.001,3.047-0.001,4.553c-0.002,3.011-0.004,5.973-0.006,8.874l-0.34-0.34
								c19.42,0.062,36.413,0.116,48.601,0.154c6.071,0.041,10.943,0.074,14.345,0.097c1.655,0.019,2.951,0.034,3.879,0.045
								c0.418,0.009,0.752,0.016,1.015,0.022C85.359,350.475,85.48,350.482,85.487,350.489c0.007,0.007-0.099,0.015-0.316,0.022
								c-0.252,0.006-0.573,0.013-0.973,0.022c-0.91,0.011-2.182,0.026-3.806,0.045c-3.384,0.023-8.229,0.056-14.267,0.097
								c-12.248,0.039-29.323,0.093-48.838,0.155l-0.34,0.001l0-0.341c-0.002-2.901-0.004-5.863-0.006-8.874
								c0-1.506-0.001-3.024-0.001-4.553c0-0.764,0-1.532,0-2.302l0-1.157v-0.58v-0.29v-0.145v-0.073v-0.036v-0.018v-0.009v-0.004
								c0.695-0.695,0.195-0.193,0.352-0.348c27.859,0.056,52.624,0.105,68.196,0.136l0.213,0l-0.002,0.211
								c-0.05,5.699-0.089,10.22-0.117,13.364c-0.022,1.497-0.039,2.665-0.051,3.503c-0.009,0.365-0.016,0.657-0.022,0.889
								C85.501,350.4,85.495,350.496,85.487,350.489z"/>
						</g>
					</g>
				</g>
			</g>
		</g>
		<g>
			<g>
				<g>
					<g>
						<g>
							<path style="fill:#E0E0E0;" d="M94.734,332.447c-0.009-0.009-0.017-0.125-0.026-0.343c-0.007-0.259-0.016-0.573-0.027-0.956
								c-0.015-0.888-0.036-2.095-0.062-3.617c-0.032-3.164-0.078-7.631-0.135-13.125l0.25,0.25
								c-10.616,0.025-25.057,0.06-40.974,0.098c-0.312,0.31,0.419-0.423,0.345-0.346v0.005v0.009v0.018v0.037v0.074v0.148l0,0.297
								v0.592l0,1.18c0,0.784,0,1.564-0.001,2.34c-0.001,1.551-0.002,3.083-0.003,4.592c-0.004,3.018-0.008,5.944-0.013,8.748
								l-0.33-0.331c11.829,0.063,22.014,0.118,29.313,0.157c3.6,0.039,6.485,0.069,8.539,0.092
								c0.959,0.017,1.723,0.031,2.303,0.041C94.439,332.42,94.721,332.434,94.734,332.447c0.014,0.014-0.241,0.027-0.744,0.041
								c-0.563,0.01-1.303,0.024-2.234,0.042c-2.035,0.022-4.895,0.053-8.463,0.091c-7.355,0.039-17.616,0.094-29.536,0.157
								l-0.331,0.002l-0.001-0.333c-0.004-2.804-0.008-5.73-0.012-8.748c-0.001-1.509-0.002-3.042-0.003-4.592
								c0-0.775-0.001-1.556-0.001-2.34l0-1.18v-0.592v-0.297v-0.148v-0.074v-0.037v-0.018v-0.009v-0.005
								c-0.076,0.073,0.659-0.66,0.351-0.349c15.917,0.038,30.358,0.073,40.974,0.098l0.252,0.001l-0.002,0.249
								c-0.056,5.558-0.102,10.077-0.134,13.277c-0.026,1.499-0.047,2.688-0.062,3.562
								C94.769,332.051,94.752,332.465,94.734,332.447z"/>
						</g>
					</g>
				</g>
			</g>
		</g>
	</g>
	<g>
		<g>
			<g>
				<g>
					<g>
						<g>
							<path style="fill:#E0E0E0;" d="M185.152,78.438c-0.007-0.007-0.014-0.118-0.021-0.328c-0.006-0.242-0.013-0.546-0.022-0.926
								c-0.012-0.849-0.029-2.033-0.051-3.551c-0.027-3.115-0.067-7.592-0.117-13.238l0.211,0.211
								c-15.572,0.031-40.337,0.081-68.196,0.136c0.154-0.155-0.351,0.347,0.343-0.347V60.4v0.009v0.018v0.036v0.073v0.145l0,0.29
								v0.58v1.157c0,0.77,0,1.537,0,2.302c-0.001,1.529-0.001,3.047-0.002,4.553c-0.002,3.011-0.004,5.973-0.006,8.874l-0.34-0.34
								c19.42,0.062,36.413,0.116,48.601,0.154c6.071,0.041,10.942,0.074,14.345,0.097c1.655,0.019,2.951,0.034,3.879,0.045
								c0.418,0.009,0.752,0.016,1.015,0.022C185.023,78.423,185.144,78.43,185.152,78.438c0.007,0.007-0.099,0.015-0.316,0.022
								c-0.252,0.006-0.573,0.013-0.973,0.022c-0.91,0.011-2.182,0.026-3.806,0.045c-3.384,0.023-8.229,0.056-14.267,0.097
								c-12.247,0.039-29.323,0.093-48.838,0.155l-0.34,0.001l0-0.341c-0.002-2.901-0.004-5.863-0.006-8.874
								c0-1.506-0.001-3.024-0.001-4.553c0-0.764,0-1.532,0-2.302l0-1.157v-0.58v-0.29v-0.145v-0.073v-0.036V60.41V60.4v-0.004
								c0.695-0.695,0.195-0.193,0.352-0.348c27.859,0.056,52.624,0.105,68.196,0.136l0.213,0l-0.002,0.211
								c-0.05,5.699-0.089,10.22-0.117,13.364c-0.022,1.498-0.039,2.665-0.051,3.503c-0.009,0.365-0.016,0.657-0.022,0.889
								C185.166,78.348,185.159,78.445,185.152,78.438z"/>
						</g>
					</g>
				</g>
			</g>
		</g>
		<g>
			<g>
				<g>
					<g>
						<g>
							<path style="fill:#E0E0E0;" d="M194.399,60.396c-0.009-0.009-0.017-0.125-0.026-0.343c-0.007-0.259-0.016-0.573-0.027-0.956
								c-0.015-0.888-0.036-2.095-0.062-3.617c-0.032-3.164-0.078-7.631-0.135-13.125l0.25,0.25
								c-10.615,0.025-25.057,0.06-40.974,0.098c-0.312,0.31,0.42-0.424,0.345-0.346v0.005v0.009v0.018v0.037v0.074v0.148l0,0.297
								v0.592l0,1.18c0,0.784-0.001,1.564-0.001,2.34c-0.001,1.551-0.002,3.083-0.003,4.592c-0.004,3.018-0.008,5.944-0.012,8.748
								l-0.331-0.331c11.829,0.063,22.014,0.118,29.313,0.157c3.6,0.039,6.485,0.069,8.539,0.092
								c0.959,0.017,1.723,0.031,2.303,0.042C194.104,60.368,194.385,60.382,194.399,60.396c0.014,0.014-0.241,0.027-0.744,0.041
								c-0.563,0.01-1.303,0.024-2.234,0.042c-2.036,0.022-4.895,0.053-8.463,0.091c-7.355,0.039-17.616,0.094-29.536,0.157
								l-0.33,0.002l-0.001-0.333c-0.004-2.804-0.008-5.73-0.012-8.748c-0.001-1.509-0.002-3.042-0.003-4.592
								c0-0.775-0.001-1.556-0.001-2.34l0-1.18v-0.592v-0.297v-0.148v-0.074v-0.037v-0.018V42.36v-0.005
								c-0.076,0.073,0.659-0.66,0.35-0.349c15.917,0.038,30.358,0.073,40.974,0.098l0.252,0.001l-0.003,0.249
								c-0.056,5.558-0.102,10.077-0.134,13.277c-0.026,1.499-0.047,2.687-0.062,3.562
								C194.433,59.999,194.416,60.413,194.399,60.396z"/>
						</g>
					</g>
				</g>
			</g>
		</g>
	</g>
	<g>
		<g>
			<g>
				<g>
					<g>
						<rect x="411.635" y="124.895" style="fill:#E0E0E0;" width="65.373" height="17.294"/>
					</g>
				</g>
			</g>
		</g>
		<g>
			<g>
				<g>
					<g>
						<g>
							<path style="fill:#E0E0E0;" d="M450.504,159.848c-0.007-0.007-0.013-0.113-0.02-0.314c-0.006-0.232-0.013-0.523-0.021-0.887
								c-0.012-0.814-0.028-1.949-0.049-3.404c-0.026-2.986-0.064-7.278-0.112-12.689l0.202,0.202
								c-14.927,0.03-38.665,0.077-65.369,0.13c0.147-0.148-0.336,0.332,0.329-0.333v0.004v0.009v0.017v0.035v0.07v0.139v0.278
								l0,0.556v1.109c0,0.738,0,1.473,0,2.206c0,1.466-0.001,2.921-0.001,4.364c-0.002,2.886-0.004,5.725-0.006,8.507l-0.326-0.326
								c18.615,0.059,34.904,0.111,46.587,0.148c5.819,0.039,10.489,0.071,13.751,0.093c1.587,0.018,2.829,0.033,3.718,0.043
								c0.4,0.009,0.72,0.016,0.973,0.021C450.381,159.834,450.497,159.841,450.504,159.848c0.007,0.007-0.095,0.014-0.303,0.021
								c-0.242,0.005-0.549,0.012-0.933,0.021c-0.872,0.01-2.091,0.024-3.648,0.043c-3.244,0.022-7.888,0.054-13.676,0.093
								c-11.74,0.037-28.108,0.089-46.814,0.148l-0.326,0.001l0-0.327c-0.002-2.781-0.004-5.62-0.005-8.507
								c0-1.443-0.001-2.899-0.001-4.364c0-0.733,0-1.468,0-2.206l0-1.109v-0.556v-0.278v-0.139v-0.07v-0.035v-0.017v-0.009v-0.004
								c0.666-0.667,0.187-0.185,0.337-0.333c26.704,0.053,50.442,0.101,65.369,0.13l0.204,0l-0.002,0.202
								c-0.048,5.463-0.086,9.796-0.112,12.81c-0.021,1.435-0.037,2.555-0.049,3.358c-0.009,0.349-0.016,0.629-0.021,0.852
								C450.518,159.762,450.511,159.855,450.504,159.848z"/>
						</g>
					</g>
				</g>
			</g>
		</g>
	</g>
	<g>
		<g>
			<g>
				<g>
					<g>
						<path style="fill:#E0E0E0;" d="M204.157,454.619c-0.007-0.007-0.013-0.113-0.02-0.314c-0.006-0.231-0.012-0.523-0.021-0.887
							c-0.012-0.814-0.028-1.949-0.049-3.404c-0.026-2.986-0.064-7.278-0.112-12.689l0.202,0.202
							c-14.927,0.03-38.665,0.077-65.369,0.13c0.147-0.148-0.336,0.332,0.329-0.333v0.004v0.009v0.017v0.035v0.07v0.139v0.278
							l0,0.556v1.109c0,0.738,0,1.473,0,2.206c0,1.466-0.001,2.921-0.001,4.364c-0.002,2.886-0.004,5.725-0.006,8.506l-0.326-0.326
							c18.615,0.059,34.904,0.111,46.587,0.148c5.819,0.039,10.489,0.071,13.751,0.093c1.587,0.018,2.829,0.033,3.718,0.043
							c0.4,0.009,0.72,0.016,0.973,0.021C204.034,454.605,204.15,454.612,204.157,454.619c0.007,0.007-0.095,0.014-0.303,0.021
							c-0.242,0.005-0.549,0.012-0.933,0.021c-0.872,0.01-2.091,0.025-3.648,0.043c-3.244,0.022-7.888,0.054-13.676,0.093
							c-11.74,0.037-28.108,0.089-46.814,0.148l-0.326,0.001l0-0.327c-0.002-2.781-0.004-5.62-0.006-8.506
							c0-1.443-0.001-2.899-0.001-4.364c0-0.733,0-1.468,0-2.206l0-1.109v-0.556v-0.278v-0.139v-0.07v-0.035v-0.017v-0.009v-0.004
							c0.667-0.667,0.187-0.185,0.337-0.334c26.704,0.053,50.443,0.101,65.369,0.131l0.204,0l-0.002,0.202
							c-0.048,5.463-0.086,9.796-0.112,12.81c-0.021,1.435-0.037,2.555-0.049,3.358c-0.009,0.349-0.016,0.629-0.021,0.852
							C204.171,454.533,204.164,454.626,204.157,454.619z"/>
					</g>
				</g>
			</g>
		</g>
	</g>
	<g>
		<g>
			<g>
				<g>
					<g>
						<path style="fill:#E0E0E0;" d="M380.587,45.204c-0.007-0.007-0.013-0.113-0.02-0.314c-0.005-0.232-0.012-0.523-0.021-0.887
							c-0.012-0.814-0.028-1.949-0.049-3.404c-0.026-2.985-0.064-7.278-0.112-12.689l0.202,0.202
							c-14.927,0.03-38.665,0.077-65.369,0.13c0.147-0.148-0.336,0.332,0.329-0.332v0.004v0.009v0.017v0.035v0.07v0.139v0.278
							l0,0.556v1.109c0,0.738,0,1.473,0,2.206c0,1.466-0.001,2.921-0.001,4.364c-0.002,2.886-0.004,5.726-0.006,8.507l-0.326-0.326
							c18.615,0.059,34.904,0.111,46.587,0.148c5.819,0.039,10.489,0.071,13.751,0.093c1.587,0.018,2.829,0.033,3.718,0.043
							c0.4,0.009,0.72,0.016,0.973,0.021C380.464,45.19,380.58,45.197,380.587,45.204c0.007,0.007-0.095,0.014-0.303,0.021
							c-0.242,0.005-0.549,0.012-0.933,0.021c-0.872,0.01-2.091,0.025-3.648,0.043c-3.244,0.022-7.888,0.054-13.676,0.093
							c-11.74,0.037-28.108,0.089-46.814,0.148l-0.326,0.001l0-0.327c-0.002-2.781-0.004-5.62-0.005-8.507
							c0-1.443-0.001-2.899-0.001-4.364c0-0.733,0-1.468,0-2.206l0-1.109v-0.556v-0.278v-0.139v-0.07V27.94v-0.017v-0.009V27.91
							c0.666-0.667,0.187-0.185,0.337-0.334c26.704,0.053,50.443,0.101,65.369,0.13l0.204,0l-0.002,0.202
							c-0.048,5.463-0.086,9.796-0.112,12.81c-0.021,1.436-0.037,2.555-0.049,3.358c-0.009,0.349-0.016,0.629-0.021,0.851
							C380.601,45.118,380.594,45.211,380.587,45.204z"/>
					</g>
				</g>
			</g>
		</g>
	</g>
	<g>
		<g>
			<g>
				<g>
					<g>
						<path style="fill:#E0E0E0;" d="M466.468,271.636c-0.007-0.007-0.013-0.113-0.02-0.314c-0.006-0.232-0.013-0.523-0.021-0.887
							c-0.012-0.814-0.028-1.949-0.049-3.404c-0.026-2.986-0.064-7.278-0.112-12.689l0.202,0.202
							c-14.927,0.03-38.665,0.077-65.369,0.131c0.147-0.148-0.336,0.332,0.329-0.333v0.004v0.009v0.017v0.035v0.07v0.139v0.278
							l0,0.556v1.109c0,0.738,0,1.473,0,2.206c0,1.466-0.001,2.921-0.001,4.364c-0.002,2.887-0.004,5.725-0.005,8.507l-0.326-0.326
							c18.615,0.059,34.904,0.111,46.587,0.148c5.819,0.039,10.489,0.071,13.751,0.093c1.587,0.018,2.829,0.033,3.718,0.043
							c0.4,0.009,0.72,0.016,0.973,0.021C466.344,271.622,466.46,271.629,466.468,271.636c0.007,0.007-0.095,0.014-0.303,0.021
							c-0.242,0.005-0.549,0.012-0.933,0.021c-0.872,0.01-2.091,0.025-3.648,0.043c-3.244,0.022-7.888,0.054-13.676,0.093
							c-11.74,0.037-28.108,0.089-46.814,0.148l-0.326,0.001l0-0.327c-0.002-2.781-0.004-5.62-0.005-8.507
							c0-1.443-0.001-2.898-0.001-4.364c0-0.733,0-1.468,0-2.206l0-1.109v-0.556v-0.278v-0.139v-0.07v-0.035v-0.017v-0.009v-0.004
							c0.667-0.667,0.187-0.185,0.337-0.334c26.704,0.053,50.443,0.101,65.369,0.131l0.204,0l-0.002,0.202
							c-0.048,5.463-0.086,9.796-0.112,12.81c-0.021,1.435-0.037,2.555-0.049,3.358c-0.009,0.349-0.016,0.629-0.021,0.852
							C466.481,271.551,466.474,271.643,466.468,271.636z"/>
					</g>
				</g>
			</g>
		</g>
	</g>
</g>
<g id="Background_Simple" style="display:none;">
	<path style="display:inline;fill:#F5F5F5;" d="M456.84,113.508l-2.715-4.475c-22.89-37.721-64.276-60.46-107.911-57.7
		c-5.609,0.355-11.194,1.114-16.704,2.293c-39.673,8.492-74.192,38.493-88.501,76.915c-8.415,22.597-10.766,48.614-26.735,66.55
		c-20.783,23.343-56.067,24.076-87.089,23.109s-66.329-0.142-87.011,23.293c-12.953,14.677-17.069,35.549-16.025,55.205
		c2.765,52.039,39.027,98.57,85.142,121.698c46.116,23.128,100.412,25.2,150.883,15.026
		c70.704-14.253,137.942-53.393,178.358-113.848S489.176,178.758,456.84,113.508z"/>
</g>
<g id="Window">
	<g>
		<g>
			<g>
				<g>
					<g>
						<rect x="78.721" y="79.736" style="fill:#455A64;" width="308.313" height="346.286"/>
					</g>
				</g>
			</g>
			<g>
				<g>
					<g>
						<g>
							<path style="fill:#263238;" d="M79.221,79.615c0.047-0.052,0.903,0.629,2.228,1.798c1.325,1.168,3.114,2.829,5.026,4.73
								c1.912,1.902,3.583,3.682,4.757,5.002c1.175,1.319,1.861,2.172,1.809,2.219c-0.055,0.05-0.835-0.715-2.077-1.967
								c-1.363-1.371-3.022-3.039-4.856-4.885c-1.854-1.824-3.532-3.474-4.91-4.83C79.939,80.448,79.171,79.67,79.221,79.615z"/>
						</g>
					</g>
				</g>
			</g>
			<g>
				<g>
					<g>
						<g>
							<path style="fill:#263238;" d="M387.034,79.736c0.101,0.102-2.832,3.164-6.549,6.837c-3.719,3.675-6.815,6.57-6.916,6.467
								c-0.101-0.102,2.831-3.163,6.55-6.838C383.836,82.53,386.932,79.634,387.034,79.736z"/>
						</g>
					</g>
				</g>
			</g>
			<g>
				<g>
					<g>
						<g>
							<path style="fill:#263238;" d="M93.121,410.851c0.106,0.097-3.115,3.805-7.194,8.281c-4.08,4.478-7.474,8.028-7.58,7.931
								c-0.106-0.097,3.114-3.804,7.195-8.282C89.621,414.305,93.014,410.754,93.121,410.851z"/>
						</g>
					</g>
				</g>
			</g>
		</g>
		<g>
			<g>
				<g>
					<rect x="92.186" y="93.041" style="fill:#EBEBEB;" width="281.383" height="319.676"/>
				</g>
			</g>
			<g>
				<g>
					<path style="fill:#263238;" d="M374.068,413.217H91.686V92.541h282.382V413.217z M92.686,412.217h280.382V93.541H92.686
						V412.217z"/>
				</g>
			</g>
		</g>
		<g style="opacity:0.6;">
			<g>
				<g>
					<g>
						<path style="fill:#FFFFFF;" d="M369.867,195.27c-0.509-6.436-1.041-12.978-3.259-18.986
							c-2.218-6.007-6.408-11.512-12.142-13.542c-4.189-1.483-8.739-0.998-13.116-0.402c-8.702,1.185-17.49,2.788-25.426,6.787
							c-14.881,7.501-21.557,25.559-25.285,42.691c-3.728,17.132,0.531,34.286,7.315,50.311
							c6.785,16.024,12.003,28.702,24.151,40.564c-6.935,10.794-8.61,25.238-4.35,37.515c1.084,3.124,2.553,6.305,2.169,9.612
							c-0.68,5.857-6.631,9.181-9.276,14.362c-2.336,4.577-1.875,10.113-1.876,15.327c-0.001,5.214-0.848,11.064-4.761,14.175
							c-2.562,2.037-5.901,2.445-8.97,3.386c-3.069,0.941-6.313,2.904-6.997,6.238l2.287,8.339l46.042-1.233l24.069-30.466
							l14.184-70.156L369.867,195.27z"/>
					</g>
				</g>
			</g>
		</g>
		<g>
			<g>
				<g>
					<g>
						<g>
							<path style="fill:#E0E0E0;" d="M213.922,351.173c-0.098-0.106,5.599-5.521,12.723-12.095
								c7.126-6.576,12.98-11.819,13.077-11.713c0.097,0.106-5.598,5.52-12.724,12.096
								C219.875,346.035,214.02,351.279,213.922,351.173z"/>
						</g>
					</g>
				</g>
			</g>
			<g>
				<g>
					<g>
						<g>
							<path style="fill:#E0E0E0;" d="M288.406,327.295c-0.098-0.106,5.599-5.521,12.723-12.095
								c7.126-6.576,12.98-11.819,13.077-11.713c0.098,0.106-5.598,5.52-12.724,12.096
								C294.359,322.156,288.503,327.401,288.406,327.295z"/>
						</g>
					</g>
				</g>
			</g>
			<g>
				<g>
					<g>
						<g>
							<path style="fill:#E0E0E0;" d="M297.807,368.904c-0.098-0.106,5.599-5.521,12.723-12.095
								c7.126-6.576,12.98-11.819,13.077-11.713c0.097,0.106-5.598,5.52-12.724,12.096
								C303.76,363.765,297.905,369.01,297.807,368.904z"/>
						</g>
					</g>
				</g>
			</g>
			<g>
				<g>
					<g>
						<g>
							<path style="fill:#E0E0E0;" d="M262.592,284.443c-0.098-0.106,5.599-5.521,12.723-12.095
								c7.126-6.576,12.98-11.819,13.077-11.713c0.098,0.106-5.598,5.52-12.724,12.096
								C268.545,279.304,262.69,284.548,262.592,284.443z"/>
						</g>
					</g>
				</g>
			</g>
			<g>
				<g>
					<g>
						<g>
							<path style="fill:#E0E0E0;" d="M335.178,327.818c-0.098-0.106,5.599-5.521,12.723-12.095
								c7.126-6.576,12.98-11.819,13.077-11.713c0.097,0.106-5.598,5.52-12.724,12.096
								C341.131,322.679,335.276,327.923,335.178,327.818z"/>
						</g>
					</g>
				</g>
			</g>
			<g>
				<g>
					<g>
						<g>
							<path style="fill:#E0E0E0;" d="M111.784,277.019c-0.098-0.106,5.599-5.521,12.723-12.095
								c7.126-6.576,12.98-11.819,13.077-11.713c0.098,0.106-5.598,5.52-12.724,12.096
								C117.737,271.88,111.882,277.124,111.784,277.019z"/>
						</g>
					</g>
				</g>
			</g>
			<g>
				<g>
					<g>
						<g>
							<path style="fill:#E0E0E0;" d="M118.99,133.655c-0.097-0.106,5.6-5.521,12.723-12.095
								c7.126-6.576,12.98-11.819,13.077-11.713c0.097,0.106-5.598,5.52-12.724,12.096
								C124.942,128.516,119.087,133.76,118.99,133.655z"/>
						</g>
					</g>
				</g>
			</g>
			<g>
				<g>
					<g>
						<g>
							<path style="fill:#E0E0E0;" d="M176.976,294.983c-0.098-0.106,5.599-5.521,12.723-12.095
								c7.126-6.576,12.98-11.819,13.077-11.713c0.097,0.106-5.598,5.52-12.724,12.096
								C182.929,289.844,177.074,295.089,176.976,294.983z"/>
						</g>
					</g>
				</g>
			</g>
			<g>
				<g>
					<g>
						<g>
							<path style="fill:#E0E0E0;" d="M158.506,395.299c-0.098-0.106,5.599-5.521,12.723-12.095
								c7.126-6.576,12.98-11.819,13.077-11.713c0.098,0.106-5.598,5.52-12.724,12.096
								C164.459,390.16,158.604,395.404,158.506,395.299z"/>
						</g>
					</g>
				</g>
			</g>
			<g>
				<g>
					<g>
						<g>
							<path style="fill:#E0E0E0;" d="M245.826,392.032c-0.097-0.106,5.599-5.521,12.723-12.095
								c7.126-6.576,12.98-11.819,13.077-11.713c0.098,0.106-5.598,5.52-12.724,12.096
								C251.779,386.893,245.924,392.137,245.826,392.032z"/>
						</g>
					</g>
				</g>
			</g>
			<g>
				<g>
					<g>
						<g>
							<path style="fill:#E0E0E0;" d="M256.392,179.801c-0.098-0.106,5.599-5.521,12.723-12.095
								c7.126-6.576,12.98-11.819,13.077-11.713c0.097,0.106-5.598,5.52-12.724,12.096
								C262.344,174.662,256.489,179.907,256.392,179.801z"/>
						</g>
					</g>
				</g>
			</g>
			<g>
				<g>
					<g>
						<g>
							<path style="fill:#FFFFFF;" d="M309.426,139.093c-0.098-0.106,5.599-5.521,12.723-12.095
								c7.126-6.576,12.98-11.819,13.077-11.713c0.098,0.106-5.598,5.52-12.724,12.096
								C315.378,133.954,309.523,139.199,309.426,139.093z"/>
						</g>
					</g>
				</g>
			</g>
			<g>
				<g>
					<g>
						<g>
							<path style="fill:#FFFFFF;" d="M131.89,205.514c-0.098-0.106,5.599-5.521,12.723-12.095
								c7.126-6.576,12.98-11.819,13.077-11.713c0.098,0.106-5.598,5.52-12.724,12.096
								C137.842,200.375,131.987,205.62,131.89,205.514z"/>
						</g>
					</g>
				</g>
			</g>
			<g>
				<g>
					<g>
						<g>
							<path style="fill:#FFFFFF;" d="M114.62,328.607c-0.098-0.106,5.599-5.521,12.723-12.095
								c7.126-6.576,12.98-11.819,13.077-11.713c0.097,0.106-5.598,5.52-12.724,12.096
								C120.573,323.468,114.717,328.712,114.62,328.607z"/>
						</g>
					</g>
				</g>
			</g>
			<g>
				<g>
					<g>
						<g>
							<path style="fill:#FFFFFF;" d="M179.65,356.213c-0.098-0.106,5.599-5.521,12.723-12.095
								c7.126-6.576,12.98-11.819,13.077-11.713c0.098,0.106-5.598,5.52-12.724,12.096
								C185.603,351.074,179.747,356.319,179.65,356.213z"/>
						</g>
					</g>
				</g>
			</g>
			<g>
				<g>
					<g>
						<g>
							<path style="fill:#FFFFFF;" d="M293.616,187.399c-0.098-0.106,5.599-5.521,12.723-12.095
								c7.126-6.576,12.98-11.819,13.077-11.713c0.098,0.106-5.598,5.52-12.724,12.096
								C299.568,182.26,293.713,187.504,293.616,187.399z"/>
						</g>
					</g>
				</g>
			</g>
			<g>
				<g>
					<g>
						<g>
							<path style="fill:#FFFFFF;" d="M243.492,252.485c-0.098-0.106,5.599-5.521,12.723-12.095
								c7.126-6.576,12.98-11.819,13.077-11.713c0.098,0.106-5.598,5.52-12.724,12.096
								C249.444,247.346,243.589,252.591,243.492,252.485z"/>
						</g>
					</g>
				</g>
			</g>
			<g>
				<g>
					<g>
						<g>
							<path style="fill:#FFFFFF;" d="M309.426,280.692c-0.098-0.106,5.599-5.521,12.723-12.095
								c7.126-6.576,12.98-11.819,13.077-11.713c0.098,0.106-5.598,5.52-12.724,12.096
								C315.378,275.553,309.523,280.797,309.426,280.692z"/>
						</g>
					</g>
				</g>
			</g>
			<g>
				<g>
					<g>
						<g>
							<path style="fill:#FFFFFF;" d="M200.703,396.672c-0.098-0.106,5.599-5.521,12.723-12.095
								c7.126-6.576,12.98-11.819,13.077-11.713c0.098,0.106-5.598,5.52-12.724,12.096
								C206.656,391.533,200.801,396.778,200.703,396.672z"/>
						</g>
					</g>
				</g>
			</g>
			<g>
				<g>
					<g>
						<g>
							<path style="fill:#E0E0E0;" d="M299.664,225.552c-0.098-0.106,5.599-5.521,12.723-12.095
								c7.126-6.576,12.98-11.819,13.077-11.713s-5.598,5.52-12.724,12.096C305.616,220.413,299.761,225.658,299.664,225.552z"/>
						</g>
					</g>
				</g>
			</g>
			<g>
				<g>
					<g>
						<g>
							<path style="fill:#E0E0E0;" d="M181.488,139.093c-0.098-0.106,5.599-5.521,12.723-12.095
								c7.126-6.576,12.98-11.819,13.077-11.713c0.098,0.106-5.598,5.52-12.724,12.096
								C187.44,133.954,181.585,139.199,181.488,139.093z"/>
						</g>
					</g>
				</g>
			</g>
			<g>
				<g>
					<g>
						<g>
							<path style="fill:#E0E0E0;" d="M275.492,127.189c-0.098-0.106,5.599-5.521,12.723-12.095
								c7.126-6.576,12.98-11.819,13.077-11.713c0.097,0.106-5.598,5.52-12.724,12.096
								C281.445,122.05,275.59,127.295,275.492,127.189z"/>
						</g>
					</g>
				</g>
			</g>
			<g>
				<g>
					<g>
						<g>
							<path style="fill:#E0E0E0;" d="M204.848,175.495c-0.098-0.106,5.599-5.521,12.723-12.095
								c7.126-6.576,12.98-11.819,13.077-11.713s-5.598,5.52-12.724,12.096C210.801,170.356,204.946,175.601,204.848,175.495z"/>
						</g>
					</g>
				</g>
			</g>
			<g>
				<g>
					<g>
						<g>
							<path style="fill:#E0E0E0;" d="M223.587,130.174c-0.098-0.106,5.599-5.521,12.723-12.095
								c7.126-6.576,12.98-11.819,13.077-11.713c0.098,0.106-5.598,5.52-12.724,12.096
								C229.539,125.036,223.684,130.28,223.587,130.174z"/>
						</g>
					</g>
				</g>
			</g>
			<g>
				<g>
					<g>
						<g>
							<path style="fill:#E0E0E0;" d="M118.99,371.491c-0.097-0.106,5.6-5.521,12.723-12.095
								c7.126-6.576,12.98-11.819,13.077-11.713c0.097,0.106-5.598,5.52-12.724,12.096
								C124.942,366.352,119.087,371.596,118.99,371.491z"/>
						</g>
					</g>
				</g>
			</g>
			<g>
				<g>
					<g>
						<g>
							<path style="fill:#E0E0E0;" d="M137.17,152.681c0.095,0.108-5.419,5.081-12.314,11.105
								c-6.897,6.026-12.563,10.822-12.657,10.714c-0.095-0.108,5.418-5.08,12.315-11.106
								C131.408,157.37,137.075,152.573,137.17,152.681z"/>
						</g>
					</g>
				</g>
			</g>
		</g>
		<g>
			<g>
				<g>
					<g>
						<path style="fill:#FFFFFF;" d="M97.876,406.947c1.854-0.008,107.52-0.473,270.093-1.188l-0.219,0.22
							c-0.011-88.381-0.025-194.043-0.04-307.328l0.26,0.26c-0.143,0-0.299,0-0.455,0c-97.961-0.011-190.222-0.021-269.639-0.03
							l0.23-0.23C97.969,282.608,97.877,404.953,97.876,406.947c-0.001-1.992-0.093-124.339-0.23-308.297l0-0.23h0.23
							c79.417-0.009,171.678-0.019,269.639-0.03c0.156,0,0.312,0,0.455,0h0.261l0,0.26c-0.015,113.285-0.029,218.947-0.04,307.328
							v0.22l-0.219,0.001C205.396,406.649,99.728,406.942,97.876,406.947z"/>
					</g>
				</g>
			</g>
		</g>
		<g>
			<g>
				<g>
					<g>
						<path style="fill:#263238;" d="M233.196,411.647c-0.144,0-0.26-71.309-0.26-159.252c0-87.974,0.116-159.268,0.26-159.268
							c0.144,0,0.26,71.294,0.26,159.268C233.457,340.339,233.34,411.647,233.196,411.647z"/>
					</g>
				</g>
			</g>
		</g>
		<g>
			<g>
				<g>
					<g>
						<path style="fill:#263238;" d="M376.91,240.581c0,0.144-63.889,0.26-142.681,0.26c-78.82,0-142.695-0.117-142.695-0.26
							c0-0.144,63.875-0.26,142.695-0.26C313.021,240.321,376.91,240.438,376.91,240.581z"/>
					</g>
				</g>
			</g>
		</g>
		<g style="opacity:0.7;">
			<g>
				<g>
					<g>
						<path style="fill:#FFFFFF;" d="M175.26,224.093c3.711-0.589,6.245-4.472,9.927-5.221c7.403-1.507,13.594,5.92,21.012,7.352
							c5.675,1.096,11.373-1.441,16.472-4.161c5.099-2.721,10.359-5.776,16.138-5.817c5.779-0.041,12.053,4.349,11.654,10.114
							c-0.341,4.92-4.974,8.198-8.568,11.576c-3.594,3.378-6.455,9.301-3.105,12.922c3.019,3.263,9.171,2.122,10.519,7.92
							c0.585,2.517-0.003,5.16-1.389,7.341c-2.831,4.456-7.759,6.813-11.242,10.639c-3.037,3.335-4.731,8.783-1.84,12.245
							c0.873,1.046,2.062,1.776,3.031,2.733c4.014,3.968,3.23,10.938,0.013,15.575c-3.217,4.637-8.231,7.628-12.798,10.944
							c-4.567,3.316-9.052,7.467-10.27,12.978c-1.497,6.769,2.32,13.668,1.84,20.584c-0.715,10.296-12.748,18.074-22.43,14.499
							c-3.275-1.209-6.162-3.44-9.571-4.19c-5.416-1.191-10.813,1.545-15.893,3.766s-11.245,3.916-15.923,0.94
							c-7.65-4.867-5.508-18.244-13.196-23.049c-6.37-3.981-16.514,0.115-21.18-5.772c-2.264-2.856-2.063-6.954-1.106-10.471
							c0.957-3.517,2.561-6.909,2.759-10.548c0.594-10.87-11.174-19.253-11.29-30.138c-0.073-6.872,4.582-12.879,9.661-17.51
							c5.079-4.631,10.921-8.647,14.585-14.461c3.784-6.005,4.881-13.384,8.58-19.441c4.523-7.407,13.039-12.106,21.678-12.341
							c2.051-0.056,4.09,0.248,6.081,0.742C170.679,224.159,172.789,224.486,175.26,224.093z"/>
					</g>
				</g>
			</g>
		</g>
		<g>
			<g>
				<g>
					<g>
						<g>
							<path style="fill:#EBEBEB;" d="M158.351,277.435c-2.314,0.517-3.771,2.812-3.254,5.126c0.517,2.314,2.812,3.771,5.126,3.254
								c2.314-0.517,3.771-2.812,3.254-5.126C162.96,278.375,160.665,276.918,158.351,277.435z"/>
						</g>
					</g>
				</g>
				<g>
					<g>
						<g>
							<path style="fill:#EBEBEB;" d="M186.562,279.933c2.314-0.517,3.771-2.812,3.254-5.126c-0.517-2.314-2.812-3.771-5.126-3.254
								c-2.314,0.517-3.771,2.812-3.254,5.126C181.953,278.993,184.248,280.45,186.562,279.933z"/>
						</g>
					</g>
				</g>
				<g>
					<g>
						<g>
							<path style="fill:#EBEBEB;" d="M171.213,296.662c1.658-1.305,3.758-2.359,6.085-2.808c2.334-0.404,4.671-0.162,6.683,0.471
								c1.015,0.298,1.933,0.727,2.785,1.149c0.831,0.458,1.592,0.928,2.241,1.425c2.63,1.973,3.72,3.891,4.168,3.668
								c0.187-0.087,0.155-0.681-0.217-1.661c-0.366-0.979-1.15-2.307-2.457-3.681c-0.65-0.69-1.453-1.357-2.371-2.001
								c-0.939-0.608-1.988-1.213-3.18-1.658c-2.36-0.927-5.255-1.354-8.224-0.834c-2.962,0.565-5.518,1.991-7.397,3.693
								c-0.957,0.839-1.724,1.776-2.387,2.677c-0.631,0.928-1.145,1.836-1.508,2.711c-0.736,1.748-0.998,3.267-0.993,4.313
								c0,1.047,0.18,1.615,0.386,1.63c0.051,0.005,0.101-0.019,0.151-0.06c0.546,2.111,1.289,4.172,2.24,6.135
								c0.187,0.387,0.47,0.826,0.9,0.818c0.337-0.006,0.607-0.314,0.685-0.641c0.079-0.327,0.011-0.67-0.057-1
								c-0.419-2.042-0.838-4.084-1.257-6.126c0.119,0.362,0.247,0.739,0.523,1.002c0.275,0.263,0.746,0.365,1.035,0.117
								c0.271-0.232,0.274-0.642,0.255-0.998c-0.106-1.967-0.212-3.934-0.318-5.901c-0.005-0.09-0.027-0.18-0.072-0.254
								c0.035-0.042,0.068-0.083,0.104-0.125C169.663,298.027,170.368,297.301,171.213,296.662z"/>
						</g>
					</g>
				</g>
			</g>
			<g>
				<g>
					<g>
						<path style="fill:#EBEBEB;" d="M216.952,280.432c-1.99-8.907-7.634-17.203-15.894-23.36c-4.526-3.374-9.77-6.024-15.163-7.663
							c-7.315-2.222-14.78-2.593-21.591-1.073c-10.38,2.319-18.94,8.889-24.104,18.502c-3.743,6.967-5.457,14.963-5.037,23.114
							c-1.006,1.624-1.263,3.683-0.994,5.597c0.314,2.241,1.259,4.339,2.192,6.4c1.507,3.328,3.014,6.655,4.521,9.983
							c1.135,2.506,2.297,5.054,4.128,7.106c2.176,2.439,5.139,4.005,8.036,5.52c2.976,1.557,6.058,3.14,9.33,3.731
							c0.57,1.892,1.245,3.752,2.033,5.563c0.362,0.832,0.912,1.773,1.817,1.828c1.18,0.07,1.795-1.356,2.064-2.507
							c4.228,4.168,2.701,11.678,6.287,16.409c0.346,0.457,0.843,0.921,1.408,0.825c0.872-0.147,0.978-1.348,0.862-2.225
							c-0.814-6.178-1.628-12.356-2.442-18.534c0.456,0.016,0.913,0.024,1.37,0.024c2.968,0,5.959-0.328,8.926-0.99
							c2.721-0.608,5.397-1.488,7.951-2.617c0.616-0.272,0.894-0.992,0.622-1.607c-0.272-0.616-0.992-0.895-1.607-0.622
							c-2.409,1.063-4.932,1.894-7.497,2.467c-9.942,2.221-20.155,0.437-28.757-5.023c-8.601-5.46-14.561-13.943-16.782-23.886
							c-4.607-20.627,5.447-40.081,23.106-45.824c0.46-0.115,0.92-0.23,1.38-0.345c0.498-0.124,1.051-0.243,1.501,0.003
							c0.562,0.307,0.712,1.03,0.803,1.664c0.268,1.876,0.537,3.753,0.805,5.629c0.12,0.843,0.465,1.902,1.315,1.938
							c0.869,0.037,1.297-1.039,1.402-1.902c0.162-1.332,0.167-2.683,0.015-4.016c-0.123-1.081-0.199-2.466,0.779-2.943
							c0.682-0.332,1.482,0.016,2.24,0.042c1.103,0.039,2.167-0.721,2.544-1.749c3.519,0.152,7.108,0.767,10.665,1.848
							c5.127,1.557,10.111,4.077,14.414,7.284c7.792,5.809,13.109,13.6,14.971,21.937c0.147,0.658,0.801,1.069,1.455,0.924
							C216.685,281.74,217.098,281.088,216.952,280.432z"/>
					</g>
				</g>
			</g>
		</g>
		<g>
			<g>
				<g>
					<g>
						<path style="fill:#FFFFFF;" d="M97.997,98.65c-0.101,0.102-1.389-1.006-2.876-2.475c-1.488-1.469-2.612-2.743-2.51-2.846
							c0.101-0.102,1.389,1.006,2.876,2.475C96.974,97.274,98.098,98.548,97.997,98.65z"/>
					</g>
				</g>
			</g>
		</g>
		<g style="opacity:0.6;">
			<g>
				<g>
					<g>
						<path style="fill:#FFFFFF;" d="M211.653,405.09c-0.101-6.008-8.129-8.429-14.068-9.345s-12.302-0.27-17.668-2.974
							c-3.333-1.68-5.939-4.504-9.074-6.531c-4.496-2.906-10.087-4.072-15.369-3.204c-3.079,0.506-6.328,1.654-9.201,0.437
							c-3.448-1.461-4.71-5.565-6.145-9.023c-6.72-16.204-23.735-25.134-40.526-20.054l0.682,50.694H211.653z"/>
					</g>
				</g>
			</g>
		</g>
		<g style="opacity:0.6;">
			<g>
				<g>
					<g>
						<path style="fill:#FFFFFF;" d="M264.632,101.841L264.632,101.841c1.134,3.927-3.987,7.39-7.681,9.138
							c-3.694,1.749-7.987,1.579-12.046,1.103c-4.059-0.477-8.176-1.225-12.201-0.514c-5.258,0.929-9.796,4.247-14.943,5.668
							c-7.988,2.205-16.408-0.345-24.447-2.358c-8.039-2.014-17.056-3.37-24.199,0.831c-6.446,3.791-10.369,11.612-17.581,13.586
							c-3.964,1.085-8.381,0.182-12.127,1.871c-5.027,2.266-7.037,8.266-8.095,13.678c-1.058,5.412-1.951,11.378-6.067,15.047
							c-3.147,2.805-7.623,3.692-10.877,6.373c-5.006,4.124-5.945,11.354-5.975,17.839c-0.05,10.887,1.422,21.747,1.202,32.632
							c-0.22,10.885-2.312,22.139-8.695,30.959l0,0l0.98-146.055L264.632,101.841z"/>
					</g>
				</g>
			</g>
		</g>
	</g>
</g>
<g id="Character">
	<g>
		<g>
			<g>
				<g>
					<g>
						<g>
							<path style="fill:#263238;" d="M426.162,272.767c-1.148-5.91-3.593-11.478-5.312-17.248
								c-1.719-5.769-1.556-11.956-2.574-18.312l-18.641,52.98c0.223,7.206,0.447,14.411,0.67,21.617
								c0.048,1.536,0.204,3.291,1.437,4.207c1.51,1.122,3.65,0.301,5.27-0.656C421.293,306.913,429.324,289.051,426.162,272.767z"
								/>
						</g>
					</g>
				</g>
				<g>
					<g>
						<g>
							<g>
								<g>
									<g>
										<g>
											<g>
												<path style="fill:#9E5F58;" d="M376.512,200.505l-35.411-7.774l-8.52,2.431c-19.532,3.268-29.482,27.028-27.02,42.877
													c2.736,17.608,6.771,38.998,11.687,51.503c9.885,25.144,30.587,24.055,30.587,24.055
													c-0.006-0.04,0.961,7.159,2.227,15.938c2.275,15.776,17.253,26.47,32.914,23.501l0,0
													c14.929-2.83,24.873-17.055,22.403-32.048l-18.617-112.996C385.808,203.214,381.355,199.962,376.512,200.505z"/>
											</g>
										</g>
									</g>
								</g>
							</g>
						</g>
						<g>
							<g>
								<g>
									<g>
										<g>
											<g>
												<g>
													<g>
														<g>
															<g>
																<g>
																	<g>
																		<g>
																			<g>
																				<g>
																					<g>
																						<g>
																							<g>
																								<g>
																									<g>
																										<path style="fill:#263238;" d="M316.129,255.77c0.327,1.779,2.103,2.968,3.966,2.661
																											c1.86-0.306,3.107-1.994,2.781-3.772c-0.327-1.778-2.103-2.97-3.962-2.663
																											C317.049,252.302,315.802,253.992,316.129,255.77z"/>
																									</g>
																								</g>
																							</g>
																						</g>
																					</g>
																				</g>
																			</g>
																		</g>
																	</g>
																</g>
															</g>
														</g>
													</g>
												</g>
											</g>
										</g>
									</g>
									<g>
										<g>
											<g>
												<g>
													<g>
														<g>
															<g>
																<g>
																	<g>
																		<g>
																			<g>
																				<g>
																					<g>
																						<g>
																							<g>
																								<g>
																									<g>
																										<g>
																											<path style="fill:#263238;" d="M312.281,247.156c0.511,0.344,2.629-2.087,6.227-2.871
																												c3.583-0.834,6.63,0.434,6.923-0.093c0.149-0.237-0.447-0.93-1.78-1.514
																												c-1.315-0.583-3.423-0.967-5.661-0.465c-2.237,0.507-3.94,1.747-4.836,2.829
																												C312.236,246.135,312.034,247.006,312.281,247.156z"/>
																										</g>
																									</g>
																								</g>
																							</g>
																						</g>
																					</g>
																				</g>
																			</g>
																		</g>
																	</g>
																</g>
															</g>
														</g>
													</g>
												</g>
											</g>
										</g>
									</g>
									<g>
										<g>
											<g>
												<g>
													<g>
														<g>
															<g>
																<g>
																	<g>
																		<g>
																			<g>
																				<g>
																					<g>
																						<g>
																							<g>
																								<g>
																									<g>
																										<path style="fill:#263238;" d="M340.935,270.497c-0.028-0.208-2.348-0.101-6.073,0.234
																											c-0.939,0.107-1.848,0.117-2.141-0.476c-0.363-0.616-0.197-1.69,0.013-2.857
																											c0.373-2.413,0.763-4.941,1.174-7.591c1.575-10.786,2.5-19.575,2.065-19.634
																											c-0.435-0.06-2.066,8.635-3.641,19.422c-0.366,2.655-0.718,5.186-1.05,7.607
																											c-0.118,1.12-0.454,2.436,0.319,3.709c0.399,0.632,1.182,0.981,1.806,1.01
																											c0.628,0.05,1.146-0.055,1.607-0.128C338.701,271.187,340.966,270.704,340.935,270.497z"/>
																									</g>
																								</g>
																							</g>
																						</g>
																					</g>
																				</g>
																			</g>
																		</g>
																	</g>
																</g>
															</g>
														</g>
													</g>
												</g>
											</g>
										</g>
									</g>
									<g>
										<g>
											<g>
												<g>
													<g>
														<g>
															<g>
																<g>
																	<g>
																		<g>
																			<g>
																				<g>
																					<g>
																						<g>
																							<g>
																								<g>
																									<path style="fill:#794742;" d="M347.836,313.597c0,0,17.778-2.736,32.843-17.005
																										c0,0-5.313,20.112-31.93,23.425L347.836,313.597z"/>
																								</g>
																							</g>
																						</g>
																					</g>
																				</g>
																			</g>
																		</g>
																	</g>
																</g>
															</g>
														</g>
													</g>
												</g>
											</g>
										</g>
									</g>
									<g>
										<g>
											<g>
												<path style="fill:#794742;" d="M353.904,274.439c-1.335-1.128-3.227-1.595-4.911-1.128
													c-1.684,0.468-3.089,1.892-3.445,3.603c-0.406,1.947,0.487,3.905,1.356,5.694l-0.151,0.182
													c2.039,0.627,4.252,0.676,6.317,0.141c0.685-0.177,1.373-0.429,1.897-0.906c0.803-0.731,1.092-1.886,1.072-2.972
													C356.008,277.308,355.239,275.568,353.904,274.439z"/>
											</g>
										</g>
									</g>
									<g>
										<g>
											<g>
												<g>
													<g>
														<g>
															<g>
																<g>
																	<g>
																		<g>
																			<g>
																				<g>
																					<g>
																						<g>
																							<g>
																								<g>
																									<g>
																										<path style="fill:#263238;" d="M345.076,284.58c0.588,0.117,1.147-3.841,4.927-6.179
																											c3.774-2.349,7.933-1.316,8.04-1.865c0.09-0.241-0.833-0.9-2.607-1.196
																											c-1.739-0.303-4.369-0.097-6.681,1.333c-2.308,1.435-3.517,3.611-3.877,5.216
																											C344.498,283.522,344.802,284.565,345.076,284.58z"/>
																									</g>
																								</g>
																							</g>
																						</g>
																					</g>
																				</g>
																			</g>
																		</g>
																	</g>
																</g>
															</g>
														</g>
													</g>
												</g>
											</g>
										</g>
									</g>
									<g>
										<g>
											<g>
												<g>
													<g>
														<g>
															<g>
																<g>
																	<g>
																		<g>
																			<g>
																				<g>
																					<g>
																						<g>
																							<g>
																								<g>
																									<g>
																										<g>
																											<g>
																												<path style="fill:#263238;" d="M320.17,231.417c-1.002-0.337-2.634,1.79-5.15,3.515
																													c-2.456,1.812-5.001,2.653-5.011,3.711c0.018,0.498,0.821,0.97,2.199,1.004
																													c1.363,0.041,3.269-0.453,4.98-1.667c1.708-1.217,2.8-2.854,3.208-4.154
																													C320.817,232.512,320.634,231.599,320.17,231.417z"/>
																											</g>
																										</g>
																									</g>
																								</g>
																							</g>
																						</g>
																					</g>
																				</g>
																			</g>
																		</g>
																	</g>
																</g>
															</g>
														</g>
													</g>
												</g>
											</g>
										</g>
									</g>
									<g>
										<g>
											<g>
												<g>
													<g>
														<g>
															<g>
																<g>
																	<g>
																		<g>
																			<g>
																				<g>
																					<g>
																						<g>
																							<g>
																								<g>
																									<g>
																										<path style="fill:#263238;" d="M356.546,247.088c0.386,1.767-0.792,3.55-2.63,3.987
																											c-1.834,0.436-3.636-0.638-4.022-2.405c-0.385-1.767,0.793-3.552,2.625-3.988
																											C354.358,244.245,356.161,245.322,356.546,247.088z"/>
																									</g>
																								</g>
																							</g>
																						</g>
																					</g>
																				</g>
																			</g>
																		</g>
																	</g>
																</g>
															</g>
														</g>
													</g>
												</g>
											</g>
										</g>
									</g>
									<g>
										<g>
											<g>
												<g>
													<g>
														<g>
															<g>
																<g>
																	<g>
																		<g>
																			<g>
																				<g>
																					<g>
																						<g>
																							<g>
																								<g>
																									<g>
																										<g>
																											<path style="fill:#263238;" d="M360.361,237.262c-0.338,0.515-3.232-0.909-6.853-0.242
																												c-3.627,0.615-5.948,2.962-6.421,2.59c-0.229-0.161,0.053-1.031,1.057-2.084
																												c0.987-1.046,2.784-2.215,5.042-2.617c2.259-0.397,4.309,0.089,5.554,0.741
																												C360.009,236.302,360.531,237.027,360.361,237.262z"/>
																										</g>
																									</g>
																								</g>
																							</g>
																						</g>
																					</g>
																				</g>
																			</g>
																		</g>
																	</g>
																</g>
															</g>
														</g>
													</g>
												</g>
											</g>
										</g>
									</g>
									<g>
										<g>
											<g>
												<g>
													<g>
														<g>
															<g>
																<g>
																	<g>
																		<g>
																			<g>
																				<g>
																					<g>
																						<g>
																							<g>
																								<g>
																									<g>
																										<g>
																											<g>
																												<path style="fill:#263238;" d="M346.157,223.519c0.739-0.832,3.616,0.048,7.08,0.105
																													c3.461,0.163,6.4-0.533,7.07,0.345c0.295,0.426-0.172,1.262-1.457,2.048
																													c-1.267,0.783-3.382,1.418-5.762,1.344c-2.379-0.078-4.439-0.844-5.639-1.707
																													C346.229,224.789,345.831,223.926,346.157,223.519z"/>
																											</g>
																										</g>
																									</g>
																								</g>
																							</g>
																						</g>
																					</g>
																				</g>
																			</g>
																		</g>
																	</g>
																</g>
															</g>
														</g>
													</g>
												</g>
											</g>
										</g>
									</g>
								</g>
							</g>
						</g>
						<g>
							<g>
								<g>
									<g>
										<g>
											<g>
												<g>
													<path style="fill:#263238;" d="M336.689,182.416c-47.154,1.274-32.861,59.431-32.861,59.431l0,0
														c17.664-17.73,33.179-48.533,33.179-48.533l7.057-2.451L336.689,182.416z"/>
												</g>
											</g>
										</g>
									</g>
								</g>
							</g>
						</g>
						<g>
							<g>
								<g>
									<g>
										<g>
											<g>
												<g>
													<g>
														<g>
															<g>
																<g>
																	<g>
																		<g>
																			<g>
																				<g>
																					<g>
																						<g>
																							<path style="fill:#9E5F58;" d="M389.008,253.275c-0.423-1.941,0.811-7.011,2.661-7.733
																								c4.941-1.926,14.255-3.55,17.208,9.428c4.035,17.739-14.607,18.132-14.755,17.63
																								C394.008,272.209,390.47,259.979,389.008,253.275z"/>
																						</g>
																					</g>
																				</g>
																			</g>
																		</g>
																	</g>
																</g>
															</g>
														</g>
													</g>
												</g>
											</g>
										</g>
									</g>
								</g>
							</g>
							<g>
								<g>
									<g>
										<g>
											<g>
												<g>
													<g>
														<g>
															<g>
																<g>
																	<g>
																		<g>
																			<g>
																				<g>
																					<g>
																						<g>
																							<g>
																								<path style="fill:#794742;" d="M398.013,264.647c0.065-0.075,0.358,0.146,0.934,0.267
																									c0.563,0.117,1.476,0.079,2.322-0.478c1.718-1.114,2.619-4.448,1.977-7.665
																									c-0.322-1.625-1.01-3.086-1.871-4.229c-0.837-1.174-1.882-1.89-2.864-1.842
																									c-0.987-0.004-1.527,0.713-1.631,1.261c-0.125,0.551,0.069,0.88-0.019,0.93
																									c-0.039,0.056-0.448-0.21-0.472-0.974c-0.007-0.37,0.105-0.836,0.445-1.272
																									c0.347-0.443,0.932-0.761,1.606-0.84c1.39-0.216,2.907,0.762,3.854,2.017
																									c1.023,1.243,1.835,2.876,2.196,4.701c0.7,3.6-0.369,7.362-2.765,8.686
																									c-1.173,0.608-2.301,0.47-2.933,0.173C398.142,265.069,397.959,264.693,398.013,264.647z"/>
																							</g>
																						</g>
																					</g>
																				</g>
																			</g>
																		</g>
																	</g>
																</g>
															</g>
														</g>
													</g>
												</g>
											</g>
										</g>
									</g>
								</g>
							</g>
						</g>
					</g>
				</g>
				<g>
					<g>
						<g>
							<path style="fill:#263238;" d="M419.986,251.991c-0.959-28.863-17.591-63.909-33.263-69.574
								c-15.672-5.665-50.012-14.112-52.672,7.383c-1.699,13.734,16.708,22.509,29.203,28.456c4.126,1.964,8.64,3.606,11.599,7.089
								c4.312,5.076-4.323,26.698,14.07,36.149c0,0,0.05-13.614,0.71-14.525c1.771-2.442,7.287-4.165,12.936-1.784
								c6.394,2.695,13.089,21.313-5.18,27.316l3.9,23.669C401.291,296.168,420.946,280.854,419.986,251.991z"/>
						</g>
					</g>
				</g>
				<g>
					<g>
						<g>
							<g>
								<path style="fill:#794742;" d="M361.739,252.264c0.005,0.155-2.133,0.276-4.682,0.876c-2.554,0.584-4.526,1.417-4.59,1.275
									c-0.063-0.116,1.854-1.183,4.472-1.783C359.553,252.018,361.745,252.132,361.739,252.264z"/>
							</g>
						</g>
					</g>
				</g>
				<g>
					<g>
						<g>
							<g>
								<path style="fill:#794742;" d="M323.929,261.907c-0.029,0.157-2.114-0.242-4.677,0.016
									c-2.566,0.233-4.537,1.019-4.595,0.871c-0.066-0.111,1.881-1.145,4.546-1.389
									C321.864,261.14,323.973,261.786,323.929,261.907z"/>
							</g>
						</g>
					</g>
				</g>
				<g>
					<g>
						<g>
							<g>
								<path style="fill:#794742;" d="M362.095,278.131c-0.144-0.053,0.186-1.097-0.014-2.378
									c-0.174-1.285-0.789-2.191-0.666-2.283c0.089-0.104,0.978,0.762,1.181,2.208
									C362.814,277.121,362.21,278.205,362.095,278.131z"/>
							</g>
						</g>
					</g>
				</g>
				<g>
					<g>
						<g>
							<g>
								<path style="fill:#455A64;" d="M416.829,233.941c-0.079,0.029-0.274-1.322-1.488-3.37c-1.226-2.035-3.719-4.518-7.409-6.65
									c-1.833-1.081-3.925-2.116-6.204-3.173c-2.276-1.069-4.706-2.211-7.261-3.411c-5.114-2.414-10.728-5.064-16.623-7.847
									c-5.89-2.797-11.5-5.46-16.609-7.886c-2.548-1.216-4.971-2.372-7.241-3.455c-2.265-1.084-4.387-2.083-6.273-3.103
									c-3.788-2.011-6.558-4.207-8.107-6.051c-1.575-1.825-2.082-3.077-2.082-3.077c0.062-0.041,0.63,1.181,2.233,2.942
									c1.578,1.783,4.343,3.904,8.129,5.861c1.885,0.993,4.009,1.97,6.284,3.038c2.276,1.07,4.706,2.211,7.262,3.411
									c5.114,2.414,10.73,5.065,16.627,7.849c5.888,2.796,11.497,5.459,16.605,7.884c2.548,1.216,4.97,2.371,7.24,3.454
									c2.272,1.074,4.371,2.136,6.208,3.247c1.839,1.106,3.403,2.282,4.642,3.461c1.241,1.178,2.14,2.363,2.752,3.4
									c0.584,1.054,0.924,1.929,1.095,2.537c0.071,0.281,0.129,0.51,0.177,0.697C416.824,233.858,416.838,233.939,416.829,233.941
									z"/>
							</g>
						</g>
					</g>
				</g>
				<g>
					<g>
						<g>
							<g>
								<path style="fill:#455A64;" d="M410.575,211.336c-0.011,0.014-0.25-0.132-0.696-0.424c-0.454-0.28-1.08-0.755-1.951-1.27
									c-1.702-1.089-4.256-2.523-7.543-4.017c-3.284-1.502-7.33-2.981-11.903-4.363c-4.573-1.387-9.674-2.664-15.025-4.037
									c-5.352-1.379-10.429-2.822-14.939-4.463c-4.509-1.639-8.453-3.451-11.585-5.29c-3.137-1.83-5.507-3.587-7.036-4.921
									c-0.792-0.635-1.331-1.214-1.727-1.571c-0.385-0.369-0.581-0.569-0.568-0.582s0.232,0.161,0.639,0.505
									c0.418,0.331,0.977,0.884,1.785,1.492c1.562,1.279,3.95,2.98,7.09,4.757c3.135,1.787,7.069,3.552,11.565,5.159
									c4.497,1.609,9.56,3.033,14.906,4.41c5.347,1.373,10.454,2.666,15.035,4.083c4.581,1.412,8.635,2.934,11.917,4.487
									c3.285,1.544,5.825,3.036,7.499,4.181c0.857,0.543,1.467,1.046,1.902,1.354
									C410.367,211.147,410.586,211.321,410.575,211.336z"/>
							</g>
						</g>
					</g>
				</g>
			</g>
			<g>
				<g>
					<g>
						<path style="fill:#263238;" d="M431.546,301.286c10.128,0.031,20.086,5.425,25.645,13.891
							c5.859,8.923,6.678,20.089,8.627,30.585c1.949,10.495,5.98,21.761,15.351,26.872c1.103,0.602,2.385,1.249,2.697,2.466
							c0.376,1.464-1.008,2.907-2.496,3.175c-1.488,0.269-2.987-0.286-4.397-0.832c5.922,7.995,5.694,19.98-0.527,27.744
							c-6.221,7.764-17.867,10.6-26.961,6.565l-30.869-90.844L431.546,301.286z"/>
					</g>
				</g>
			</g>
			<g>
				<g>
					<g>
						<path style="fill:#455A64;" d="M429.239,293.152c-3.049-1.682-6.834,0.452-9.184,3.023c-3.345,3.66-5.471,8.241-7.545,12.744
							c1.004,2.739-1.053,6.062,0.787,8.325c1.841,2.263,4.668,3.938,7.569,3.627c3.873-0.414,6.55-4.055,8.155-7.605
							c1.623-3.591,2.681-7.438,3.123-11.354C432.51,298.664,432.102,294.732,429.239,293.152z"/>
					</g>
				</g>
			</g>
		</g>
		<g>
			<g>
				<g>
					<path style="fill:#9E5F58;" d="M229.356,337.442c0,0,25.697,34.478,35.653,47c10.773,13.549,28.32,34.923,28.32,34.923
						l-4.466,49.196c0,0-27.733-13.478-35.446-28.39c-7.713-14.911-43.755-82.197-43.755-82.197L229.356,337.442z"/>
				</g>
			</g>
		</g>
		<g>
			<g>
				<g>
					<path style="fill:#FF725E;" d="M403,296.592c0,0-19.199,11.98-26.019,16.865c-3.288,2.355-27.382,23.013-27.382,23.013
						l1.673,6.431c0,0-9.935,33.474-11.825,41.555c-1.503,6.426-6.266,75.137-7.119,86.518h125.128c0,0,0.198-85.811-5.256-101.811
						c-7.875-23.1-36.44-58.487-36.44-58.487l-9.49-2.262L403,296.592z"/>
				</g>
			</g>
		</g>
		<g>
			<g>
				<g>
					<path style="fill:#FF725E;" d="M359.962,361.568c-1.714,0.963-39.185,39.042-39.185,39.042s-9.212,2.13-10.44,9.049
						l-10.671,3.385c-0.833-2.334-9.502-3.668-11.113,1.868c-0.733,2.519-10.862,41.064-11.367,46.949
						c-0.455,5.301,16.143,9.112,16.143,9.112l14.878-4.039c0,0,25.775-1.842,29.46-2.763c3.685-0.921,52.2-16.888,66.325-31.934
						c14.125-15.046,29.785-31.32,29.785-31.32S387.29,346.215,359.962,361.568z"/>
				</g>
			</g>
		</g>
		<g>
			<g>
				<g>
					<g>
						<path style="fill:#263238;" d="M288.552,414.912c-0.009-0.002,0.009-0.082,0.051-0.237c0.034-0.158,0.111-0.385,0.25-0.67
							c0.263-0.565,0.876-1.363,1.991-1.867c2.239-1.033,5.897-0.844,10.011,0.375l-0.112-0.001c2.644-0.851,5.623-1.81,8.869-2.855
							l-0.121,0.095c0.342-0.559,0.721-1.178,1.106-1.807l-0.018,0.036c0.762-1.87,2.107-3.639,3.919-4.907
							c1.791-1.3,3.917-2.226,6.236-2.713l-0.139,0.073c2.308-2.358,4.717-4.82,7.188-7.346
							c9.378-9.531,17.866-18.157,24.046-24.438c3.071-3.086,5.568-5.594,7.329-7.364c0.85-0.838,1.522-1.501,2.012-1.984
							c0.215-0.205,0.39-0.371,0.533-0.507c0.122-0.112,0.188-0.166,0.194-0.16c0.006,0.006-0.047,0.073-0.156,0.197
							c-0.132,0.145-0.295,0.323-0.495,0.543c-0.473,0.5-1.121,1.185-1.942,2.052c-1.734,1.798-4.189,4.345-7.211,7.48
							c-6.152,6.308-14.601,14.972-23.937,24.544c-2.474,2.522-4.886,4.982-7.196,7.337l-0.055,0.056l-0.085,0.017
							c-4.429,0.901-8.391,3.632-9.815,7.286l-0.007,0.018l-0.011,0.017c-0.389,0.626-0.771,1.243-1.117,1.8l-0.044,0.071
							l-0.078,0.024c-3.256,1.017-6.243,1.951-8.893,2.779l-0.055,0.017l-0.058-0.018c-4.035-1.245-7.646-1.48-9.815-0.537
							c-1.084,0.458-1.695,1.197-1.982,1.733C288.643,414.591,288.59,414.925,288.552,414.912z"/>
					</g>
				</g>
			</g>
		</g>
		<g style="opacity:0.3;">
			<g>
				<g>
					<g>
						<path d="M336.394,464.538c19.742-1.48,39.717-5.449,56.832-15.399c17.116-9.95,31.104-26.595,34.269-46.138
							C406.152,434.2,375.432,454.294,336.394,464.538z"/>
					</g>
				</g>
			</g>
		</g>
		<g>
			<g>
				<g>
					<g>
						<path style="fill:#263238;" d="M426.531,403.419c0.008,0.005-0.057,0.111-0.19,0.314c-0.15,0.223-0.349,0.518-0.601,0.893
							c-0.556,0.804-1.346,1.947-2.355,3.407c-0.516,0.74-1.089,1.56-1.713,2.456c-0.652,0.878-1.421,1.787-2.215,2.788
							c-1.624,1.973-3.357,4.321-5.603,6.63c-1.091,1.184-2.234,2.423-3.425,3.714c-1.2,1.282-2.574,2.493-3.928,3.814
							c-0.685,0.653-1.382,1.317-2.09,1.991c-0.693,0.692-1.448,1.337-2.228,1.976c-1.545,1.296-3.135,2.629-4.766,3.996
							c-6.696,5.251-14.47,10.513-23.155,15.12c-8.739,4.512-17.496,7.902-25.628,10.411c-2.053,0.56-4.055,1.107-6.001,1.638
							c-0.486,0.132-0.969,0.264-1.448,0.395c-0.481,0.121-0.968,0.206-1.445,0.309c-0.958,0.197-1.901,0.392-2.828,0.583
							c-1.858,0.36-3.635,0.799-5.373,1.054c-1.739,0.242-3.409,0.475-5.003,0.697c-3.178,0.53-6.095,0.615-8.641,0.825
							c-1.275,0.082-2.46,0.196-3.553,0.231c-1.092,0.003-2.092,0.005-2.994,0.008c-1.774-0.003-3.164-0.005-4.141-0.006
							c-0.452-0.006-0.807-0.011-1.076-0.015c-0.242-0.006-0.366-0.014-0.366-0.023c0-0.009,0.125-0.019,0.367-0.03
							c0.269-0.009,0.625-0.021,1.076-0.037c0.977-0.022,2.364-0.052,4.136-0.091c0.901-0.016,1.898-0.034,2.988-0.053
							c1.091-0.05,2.272-0.178,3.544-0.273c2.539-0.237,5.446-0.348,8.612-0.899c1.589-0.232,3.252-0.475,4.985-0.729
							c1.731-0.265,3.502-0.713,5.351-1.081c0.923-0.195,1.862-0.393,2.816-0.594c0.476-0.105,0.96-0.191,1.44-0.314
							c0.477-0.132,0.958-0.266,1.442-0.4c1.937-0.536,3.931-1.088,5.975-1.654c8.098-2.526,16.817-5.917,25.525-10.413
							c8.654-4.591,16.408-9.822,23.098-15.034c1.63-1.357,3.219-2.681,4.764-3.967c0.78-0.634,1.535-1.274,2.229-1.961
							c0.709-0.669,1.407-1.327,2.093-1.975c1.357-1.31,2.734-2.51,3.938-3.781c1.196-1.279,2.343-2.507,3.44-3.68
							c2.258-2.287,4.006-4.613,5.648-6.564c0.803-0.99,1.582-1.888,2.245-2.756c0.637-0.884,1.22-1.694,1.747-2.425
							c1.042-1.434,1.858-2.557,2.433-3.347c0.27-0.362,0.483-0.648,0.644-0.864C426.444,403.51,426.523,403.414,426.531,403.419z"
							/>
					</g>
				</g>
			</g>
		</g>
		<g>
			<g>
				<g>
					<g>
						<path style="fill:#263238;" d="M430.903,382.455c-0.018,0.002-0.072-0.257-0.157-0.751c-0.099-0.491-0.172-1.227-0.38-2.154
							c-0.395-1.854-1.108-4.522-2.522-7.603c-1.413-3.073-3.572-6.533-6.617-9.815c-3.086-3.222-7.056-6.285-11.819-8.288
							c-4.749-2.037-9.709-2.759-14.174-2.888c-4.483-0.142-8.521,0.294-11.889,0.718c-3.37,0.446-6.083,0.929-7.96,1.245
							c-0.9,0.15-1.619,0.269-2.163,0.359c-0.495,0.077-0.757,0.109-0.761,0.092c-0.003-0.018,0.252-0.084,0.741-0.195
							c0.539-0.115,1.253-0.266,2.145-0.456c1.867-0.377,4.572-0.916,7.946-1.41c3.373-0.472,7.428-0.95,11.953-0.833
							c4.507,0.104,9.535,0.817,14.365,2.888c4.84,2.035,8.859,5.156,11.966,8.439c3.066,3.343,5.218,6.867,6.602,9.991
							c1.385,3.133,2.049,5.84,2.385,7.717c0.178,0.938,0.219,1.682,0.285,2.179C430.902,382.191,430.921,382.454,430.903,382.455z"
							/>
					</g>
				</g>
			</g>
		</g>
		<g>
			<g>
				<g>
					<g>
						<path style="fill:none;stroke:#FFC7BF;stroke-miterlimit:10;" d="M404.163,352.684"/>
					</g>
				</g>
			</g>
		</g>
		<g>
			<g>
				<g>
					<g>
						<path style="fill:#263238;" d="M406.139,310.698c0.011,0.014-0.189,0.196-0.582,0.528c-0.434,0.359-1.01,0.837-1.732,1.436
							c-1.561,1.263-3.747,3.033-6.43,5.204c-5.498,4.385-13.022,10.386-21.335,17.016c-7.063,5.574-13.559,10.7-18.651,14.719
							l-0.195,0.154l-0.113-0.219c-2.069-3.996-3.767-7.277-4.976-9.613c-0.562-1.113-1.009-2-1.339-2.655
							c-0.134-0.28-0.245-0.51-0.336-0.701c-0.073-0.16-0.106-0.244-0.097-0.249c0.009-0.005,0.06,0.07,0.151,0.22
							c0.106,0.183,0.233,0.404,0.389,0.673c0.354,0.642,0.834,1.511,1.437,2.603c1.247,2.315,2.999,5.568,5.133,9.53l-0.308-0.065
							c5.073-4.043,11.545-9.2,18.582-14.807c8.35-6.583,15.908-12.542,21.43-16.896c2.726-2.118,4.947-3.843,6.533-5.075
							c0.747-0.567,1.344-1.019,1.793-1.359C405.905,310.838,406.128,310.684,406.139,310.698z"/>
					</g>
				</g>
			</g>
		</g>
		<g>
			<g>
				<g>
					<g>
						<path style="fill:#263238;" d="M397.851,321.025c0.123,0.074-3.52,6.385-8.138,14.095c-4.619,7.713-8.462,13.903-8.585,13.829
							c-0.123-0.074,3.52-6.384,8.138-14.097C393.883,327.142,397.727,320.951,397.851,321.025z"/>
					</g>
				</g>
			</g>
		</g>
		<g>
			<g>
				<g>
					<g>
						<path style="fill:#263238;" d="M410.577,471.178c-0.143-0.013,0.791-11.318,2.087-25.247
							c1.296-13.934,2.463-25.215,2.606-25.202c0.143,0.013-0.791,11.316-2.087,25.25
							C411.886,459.907,410.72,471.191,410.577,471.178z"/>
					</g>
				</g>
			</g>
		</g>
		<g style="opacity:0.3;">
			<g>
				<g>
					<polyline points="350.745,337.064 350.853,337.439 356.231,356.201 397.851,317.271 359.062,348.405 					"/>
				</g>
			</g>
		</g>
		<g>
			<g>
				<g>
					<g>
						<path style="fill:#263238;" d="M293.409,471.178c-0.017-0.005,0.019-0.206,0.105-0.585c0.105-0.432,0.237-0.977,0.399-1.648
							c0.366-1.425,0.86-3.497,1.43-6.064c1.145-5.133,2.463-12.286,3.291-20.267c0.817-7.985,0.984-15.258,0.91-20.516
							c-0.034-2.629-0.096-4.758-0.164-6.228c-0.022-0.69-0.04-1.25-0.055-1.695c-0.007-0.388-0.002-0.592,0.016-0.593
							c0.018-0.001,0.048,0.201,0.088,0.586c0.04,0.443,0.09,1.002,0.152,1.69c0.13,1.468,0.248,3.598,0.329,6.232
							c0.169,5.267,0.059,12.567-0.76,20.577c-0.831,8.006-2.211,15.174-3.45,20.296c-0.617,2.562-1.167,4.624-1.593,6.034
							c-0.201,0.66-0.364,1.198-0.494,1.623C293.497,470.991,293.426,471.183,293.409,471.178z"/>
					</g>
				</g>
			</g>
		</g>
		<g>
			<g>
				<g>
					<g>
						<path style="fill:#263238;" d="M304.711,444.56c-0.036-0.002-0.054-0.444-0.057-1.242c0.003-0.797-0.009-1.95-0.044-3.373
							c-0.066-2.845-0.307-6.774-0.939-11.069c-0.639-4.295-1.546-8.126-2.306-10.868c-0.379-1.372-0.702-2.479-0.935-3.241
							c-0.228-0.764-0.339-1.193-0.305-1.205c0.034-0.012,0.209,0.394,0.497,1.14c0.293,0.744,0.671,1.838,1.096,3.203
							c0.854,2.728,1.825,6.572,2.468,10.896c0.636,4.323,0.82,8.283,0.792,11.142c-0.012,1.43-0.057,2.586-0.122,3.383
							C304.796,444.122,304.746,444.562,304.711,444.56z"/>
					</g>
				</g>
			</g>
		</g>
		<g>
			<g>
				<g>
					<g>
						<path style="fill:#263238;" d="M317.339,445.626c-0.036-0.001-0.063-0.523-0.08-1.466c-0.011-0.942-0.049-2.305-0.124-3.987
							c-0.145-3.362-0.533-8.002-1.409-13.06c-0.885-5.059-2.088-9.557-3.087-12.77c-0.498-1.608-0.923-2.903-1.231-3.794
							c-0.302-0.893-0.453-1.393-0.42-1.406c0.034-0.013,0.249,0.463,0.61,1.336c0.367,0.871,0.846,2.151,1.391,3.751
							c1.094,3.197,2.36,7.707,3.25,12.794c0.881,5.087,1.213,9.76,1.264,13.138c0.028,1.689,0.009,3.057-0.042,4.001
							C317.417,445.106,317.375,445.627,317.339,445.626z"/>
					</g>
				</g>
			</g>
		</g>
		<g>
			<g>
				<g>
					<g>
						<path style="fill:#9E5F58;" d="M193.308,319.856c0,0-4.126-3.634-6.541-3.332c-2.962,0.37-2.839,4.937-2.839,4.937
							c-0.573,2.483,5.929,9.189,8.411,12.818c2.483,3.629,19.099,25.784,19.099,25.784l22.155-15.852c0,0,0,0-0.955-5.921
							c-0.955-5.921-11.078-26.93-11.078-26.93s-11.841-19.29-13.561-21.391c-1.719-2.101-13.942-8.022-14.515-8.213
							c0,0-3.507,4.001-0.335,6.689c1.629,1.381,8.357,6.107,8.357,6.107l5.921,10.505l-0.051,0.854l-6.632-9.536
							c0,0-2.715-2.468-5.184-2.839c-2.468-0.37-6.483,0.972-6.483,0.972s-2.156,1.62-1.292,4.458l1.234,1.481l2.837,0.815
							l4.707,7.506c0,0-4.216-2.417-5.913-0.92c-1.538,1.357-2.101,3.075-1.896,4.991
							C188.961,314.754,193.308,319.856,193.308,319.856z"/>
					</g>
				</g>
			</g>
			<g>
				<g>
					<g>
						<g>
							<path style="fill:#794742;" d="M214.156,305.739c-0.008,0.151-1.039,0.141-2.046,0.802c-1.024,0.635-1.449,1.575-1.589,1.518
								c-0.062-0.021-0.044-0.299,0.15-0.698c0.19-0.396,0.585-0.892,1.158-1.259c0.574-0.365,1.19-0.514,1.63-0.52
								C213.903,305.574,214.163,305.674,214.156,305.739z"/>
						</g>
					</g>
				</g>
			</g>
			<g>
				<g>
					<g>
						<g>
							<path style="fill:#794742;" d="M200.563,314.439c-0.114,0.087-1.3-1.269-2.649-3.029c-1.349-1.761-2.35-3.259-2.236-3.346
								c0.114-0.087,1.3,1.269,2.649,3.03C199.676,312.853,200.678,314.351,200.563,314.439z"/>
						</g>
					</g>
				</g>
			</g>
			<g>
				<g>
					<g>
						<g>
							<path style="fill:#794742;" d="M195.795,324.067c-0.117,0.083-1.059-1.045-2.104-2.52c-1.045-1.475-1.796-2.738-1.679-2.822
								c0.117-0.083,1.059,1.045,2.104,2.521C195.161,322.72,195.912,323.984,195.795,324.067z"/>
						</g>
					</g>
				</g>
			</g>
		</g>
		<g>
			<g>
				<g>
					<g>
						<path style="fill:none;stroke:#A68581;stroke-width:0.05;stroke-miterlimit:10;" d="M318.716,293.133"/>
					</g>
				</g>
			</g>
		</g>
		<g>
			<g>
				<g>
					<g>
						<path style="fill:#263238;" d="M351.272,342.9c0.034,0.013-0.127,0.553-0.446,1.514c-0.301,0.969-0.731,2.371-1.229,4.115
							c-0.996,3.488-2.268,8.338-3.732,13.683c-1.46,5.348-2.899,10.161-4.071,13.602c-0.589,1.72-1.086,3.105-1.472,4.046
							c-0.378,0.944-0.603,1.459-0.636,1.447c-0.034-0.013,0.127-0.552,0.446-1.516c0.327-0.96,0.769-2.36,1.312-4.091
							c1.08-3.463,2.46-8.281,3.919-13.627c1.463-5.342,2.792-10.182,3.881-13.651c0.544-1.734,1.03-3.125,1.391-4.076
							C351.014,343.402,351.239,342.887,351.272,342.9z"/>
					</g>
				</g>
			</g>
		</g>
	</g>
</g>
<g id="Desk">
	<g>
		<g>
			<g>
				<g>
					<path style="fill:#263238;" d="M468.545,470.973c0,0.144-98.301,0.26-219.534,0.26c-121.275,0-219.555-0.117-219.555-0.26
						c0-0.144,98.28-0.26,219.555-0.26C370.243,470.712,468.545,470.829,468.545,470.973z"/>
				</g>
			</g>
		</g>
	</g>
</g>
<g id="Plant">
	<g>
		<g>
			<g>
				<g>
					<g>
						<g>
							<path style="fill:#263238;" d="M48.178,227.406c0,0,0.023-0.202,0.101-0.589c0.087-0.413,0.208-0.982,0.362-1.714
								c0.339-1.533,0.828-3.744,1.455-6.578c1.299-5.737,3.167-13.991,5.475-24.189c4.694-20.449,11.174-48.684,18.353-79.962
								l0.324-1.411l0.32,1.413c0.127,0.561,0.264,1.168,0.402,1.777c7.141,31.717,13.604,60.425,18.29,81.238
								c2.304,10.38,4.171,18.789,5.469,24.635c0.627,2.888,1.115,5.142,1.454,6.705c0.155,0.746,0.275,1.326,0.362,1.747
								c0.078,0.394,0.101,0.6,0.101,0.6s-0.067-0.196-0.167-0.585c-0.103-0.418-0.244-0.993-0.426-1.733
								c-0.367-1.557-0.897-3.801-1.575-6.678c-1.346-5.835-3.283-14.228-5.674-24.589c-4.734-20.802-11.264-49.496-18.479-81.196
								c-0.138-0.609-0.275-1.216-0.402-1.777l0.644,0.001c-7.254,31.261-13.802,59.48-18.545,79.917
								c-2.394,10.178-4.332,18.416-5.679,24.142c-0.678,2.822-1.208,5.023-1.575,6.55c-0.182,0.725-0.323,1.289-0.426,1.699
								C48.245,227.214,48.178,227.406,48.178,227.406z"/>
						</g>
					</g>
				</g>
			</g>
		</g>
		<g>
			<g>
				<g>
					<g>
						<path style="fill:#263238;" d="M48.164,251.154V231.08h53.558v20.074c0,12.907-10.463,23.37-23.37,23.37h-6.818
							C58.627,274.524,48.164,264.06,48.164,251.154z"/>
					</g>
				</g>
			</g>
		</g>
		<g>
			<g>
				<g>
					<g>
						<g>
							<path style="fill:#263238;" d="M48.164,231.08c0.019-0.012,0.228,0.278,0.608,0.843c0.407,0.619,0.951,1.447,1.633,2.486
								c1.43,2.231,3.437,5.363,5.903,9.209c4.961,7.859,11.756,18.623,19.263,30.514c0.047,0.074,0.093,0.149,0.136,0.217
								l-0.562,0.005c7.286-11.966,13.874-22.784,18.682-30.679c2.39-3.864,4.335-7.009,5.721-9.25
								c0.662-1.044,1.189-1.875,1.584-2.497c0.368-0.567,0.571-0.859,0.59-0.847c0.02,0.012-0.145,0.327-0.477,0.916
								c-0.368,0.638-0.86,1.49-1.478,2.561c-1.342,2.267-3.227,5.449-5.542,9.358c-4.765,7.921-11.294,18.775-18.516,30.78
								l-0.277,0.46l-0.286-0.455c-0.043-0.068-0.09-0.143-0.136-0.217c-7.443-11.931-14.18-22.731-19.099-30.616
								c-2.391-3.893-4.338-7.062-5.725-9.32c-0.639-1.067-1.148-1.917-1.528-2.552C48.316,231.406,48.145,231.092,48.164,231.08z"
								/>
						</g>
					</g>
				</g>
			</g>
		</g>
		<g>
			<g>
				<g>
					<g>
						<path style="fill:#263238;" d="M80.261,114.198c0,3.23-2.618,5.848-5.848,5.848c-3.23,0-5.848-2.618-5.848-5.848
							c0-3.23,2.618-5.848,5.848-5.848C77.642,108.35,80.261,110.968,80.261,114.198z"/>
					</g>
				</g>
			</g>
		</g>
		<g>
			<g>
				<g>
					<g>
						<g>
							<path style="fill:#263238;" d="M74.412,14.657c0.182,0,0.33,22.53,0.33,50.316c0,27.796-0.148,50.321-0.33,50.321
								c-0.182,0-0.33-22.525-0.33-50.321C74.082,37.187,74.23,14.657,74.412,14.657z"/>
						</g>
					</g>
				</g>
			</g>
		</g>
		<g>
			<g>
				<g>
					<g>
						<path style="fill:#263238;" d="M77.447,276.704c0,1.383-1.121,2.504-2.504,2.504c-1.383,0-2.504-1.121-2.504-2.504
							c0-1.383,1.121-2.504,2.504-2.504C76.326,274.201,77.447,275.322,77.447,276.704z"/>
					</g>
				</g>
			</g>
		</g>
		<g>
			<g>
				<g>
					<g>
						<path style="fill:#263238;" d="M73.835,277.64c0.134-0.067,0.268-0.133,0.402-0.2c-1.461,0.823-2.302,2.481-2.529,4.142
							c-0.227,1.661,0.078,3.346,0.429,4.986c0.112,0.522,0.386,1.17,0.919,1.138c0.48-0.029,0.707-0.6,0.788-1.073
							c0.17-0.991,0.196-2.006,0.077-3.004c-0.064,1.27,0.358,2.558,1.161,3.544c0.157,0.192,0.382,0.391,0.621,0.327
							c0.228-0.061,0.328-0.322,0.388-0.549c0.221-0.84,0.347-1.705,0.377-2.573c0.131,0.746,0.283,1.536,0.797,2.091
							c0.514,0.556,1.523,0.719,1.995,0.127c0.316-0.396,0.283-0.959,0.213-1.46c-0.418-2.986-1.639-5.855-3.502-8.225"/>
					</g>
				</g>
			</g>
		</g>
		<g>
			<g>
				<g>
					<g>
						<g>
							<path style="fill:#FF725E;" d="M51.535,231.08c0,0-24.061-27.737-21.388-28.74c2.674-1.003,24.061,14.37,24.061,14.37
								s-18.38-41.105-14.704-44.113c3.676-3.008,23.059,36.426,23.059,36.426s-3.008-57.48,0-58.148
								c3.008-0.669,14.036,57.48,14.036,57.48s16.375-53.135,21.054-53.135c4.679,0-5.013,51.13-5.013,51.13
								s19.383-32.75,22.39-28.406c3.008,4.344-13.702,39.768-13.702,39.768s24.396-20.385,25.398-17.712
								c1.003,2.674-26.401,31.079-26.401,31.079H51.535z"/>
						</g>
					</g>
				</g>
			</g>
			<g>
				<g>
					<g>
						<g>
							<g>
								<path style="fill:#263238;" d="M48.178,189.306c0.166-0.075,4.435,9.075,9.532,20.434
									c5.099,11.363,9.097,20.632,8.93,20.707c-0.166,0.075-4.434-9.073-9.533-20.436
									C52.01,198.652,48.011,189.381,48.178,189.306z"/>
							</g>
						</g>
					</g>
				</g>
			</g>
			<g>
				<g>
					<g>
						<g>
							<g>
								<path style="fill:#263238;" d="M67.615,194.418c0.182-0.012,0.891,8.052,1.584,18.011
									c0.693,9.962,1.107,18.046,0.925,18.058c-0.182,0.013-0.891-8.05-1.584-18.012
									C67.848,202.516,67.434,194.431,67.615,194.418z"/>
							</g>
						</g>
					</g>
				</g>
			</g>
			<g>
				<g>
					<g>
						<g>
							<g>
								<path style="fill:#263238;" d="M94.428,168.676c0.022,0.007-0.028,0.231-0.142,0.651c-0.142,0.49-0.316,1.094-0.528,1.828
									c-0.503,1.675-1.184,3.94-2.012,6.696c-1.697,5.654-3.977,13.483-6.301,22.182c-2.32,8.704-4.243,16.629-5.589,22.376
									c-0.655,2.803-1.193,5.105-1.591,6.808c-0.182,0.742-0.331,1.352-0.452,1.848c-0.111,0.421-0.179,0.64-0.202,0.635
									c-0.022-0.005,0.003-0.232,0.071-0.662c0.089-0.502,0.198-1.121,0.331-1.873c0.299-1.625,0.771-3.968,1.387-6.857
									c1.23-5.778,3.084-13.73,5.407-22.445c2.326-8.71,4.681-16.528,6.493-22.151c0.905-2.812,1.663-5.079,2.214-6.637
									c0.26-0.718,0.473-1.31,0.646-1.79C94.314,168.879,94.406,168.669,94.428,168.676z"/>
							</g>
						</g>
					</g>
				</g>
			</g>
			<g>
				<g>
					<g>
						<g>
							<g>
								<path style="fill:#263238;" d="M106.022,198.305c0.15,0.104-4.547,7.107-10.489,15.639
									c-5.944,8.535-10.882,15.368-11.032,15.263c-0.15-0.104,4.546-7.106,10.49-15.641
									C100.933,205.035,105.872,198.201,106.022,198.305z"/>
							</g>
						</g>
					</g>
				</g>
			</g>
			<g>
				<g>
					<g>
						<g>
							<g>
								<path style="fill:#263238;" d="M59.655,230.491c-0.056,0.067-0.871-0.492-2.106-1.503c-1.234-1.01-2.877-2.485-4.578-4.228
									c-1.7-1.745-3.133-3.424-4.112-4.684c-0.98-1.259-1.518-2.089-1.449-2.143c0.153-0.12,2.653,2.91,6.034,6.365
									C56.813,227.765,59.779,230.342,59.655,230.491z"/>
							</g>
						</g>
					</g>
				</g>
			</g>
			<g>
				<g>
					<g>
						<g>
							<g>
								<path style="fill:#263238;" d="M74.269,219.472c0.182-0.017,0.564,2.545,0.853,5.721c0.29,3.177,0.377,5.765,0.196,5.781
									c-0.182,0.017-0.564-2.545-0.853-5.721C74.175,222.077,74.088,219.489,74.269,219.472z"/>
							</g>
						</g>
					</g>
				</g>
			</g>
		</g>
		<g>
			<g>
				<g>
					<g>
						<g>
							<path style="fill:#FFFFFF;" d="M101.722,243.589c0.007,0.045-0.73,0.195-2.07,0.429c-1.339,0.236-3.283,0.539-5.691,0.873
								c-4.815,0.665-11.501,1.426-18.926,1.683c-7.429,0.249-14.165-0.159-18.991-0.793c-2.414-0.312-4.359-0.629-5.689-0.915
								c-1.333-0.273-2.065-0.445-2.056-0.489c0.008-0.045,0.757,0.042,2.099,0.236c1.341,0.207,3.289,0.453,5.699,0.704
								c4.82,0.513,11.519,0.845,18.916,0.597c7.394-0.255,14.067-0.94,18.89-1.486c2.326-0.27,4.251-0.494,5.712-0.664
								C100.965,243.608,101.715,243.543,101.722,243.589z"/>
						</g>
					</g>
				</g>
			</g>
		</g>
		<g>
			<g>
				<g>
					<g>
						<g>
							<path style="fill:#FFFFFF;" d="M101.722,249.564c0.007,0.045-0.73,0.195-2.07,0.429c-1.339,0.236-3.283,0.539-5.691,0.873
								c-4.815,0.665-11.501,1.426-18.926,1.683c-7.429,0.249-14.165-0.159-18.991-0.793c-2.414-0.312-4.359-0.63-5.689-0.915
								c-1.333-0.273-2.065-0.445-2.056-0.489c0.008-0.045,0.757,0.042,2.099,0.236c1.341,0.207,3.289,0.452,5.699,0.704
								c4.82,0.513,11.519,0.845,18.916,0.597c7.394-0.256,14.067-0.94,18.89-1.486c2.326-0.27,4.251-0.494,5.712-0.664
								C100.965,249.584,101.715,249.519,101.722,249.564z"/>
						</g>
					</g>
				</g>
			</g>
		</g>
	</g>
</g>
</svg>
